# Blender v2.83.0 OBJ File: 'blade.blend'
# www.blender.org
mtllib blade.mtl
o Cylinder
v -0.800000 0.005242 -0.050000
v -0.800000 0.005242 0.050000
v -0.393339 0.155860 -0.050000
v -0.393339 0.155860 0.050000
v -0.247214 0.766087 -0.050000
v -0.247214 0.766087 0.050000
v 0.124810 0.396609 -0.050000
v 0.124810 0.396609 0.050000
v 0.647214 0.475470 -0.050000
v 0.647214 0.475470 0.050000
v 0.373853 0.123112 -0.050000
v 0.373853 0.123112 0.050000
v 0.647214 -0.464987 -0.050000
v 0.647214 -0.464987 0.050000
v 0.274414 -0.290922 -0.050000
v 0.274414 -0.290922 0.050000
v -0.247214 -0.755603 -0.050000
v -0.247214 -0.755603 0.050000
v -0.187066 -0.224712 -0.050000
v -0.187066 -0.224712 0.050000
vt 1.000000 0.500000
vt 0.900000 1.000000
vt 0.900000 0.500000
vt 0.800000 0.500000
vt 0.800000 1.000000
vt 0.700000 0.500000
vt 0.700000 1.000000
vt 0.600000 0.500000
vt 0.600000 1.000000
vt 0.500000 0.500000
vt 0.500000 1.000000
vt 0.400000 0.500000
vt 0.400000 1.000000
vt 0.300000 0.500000
vt 0.300000 1.000000
vt 0.200000 0.500000
vt 0.478254 0.175836
vt 0.108932 0.444164
vt 0.250000 0.010000
vt 0.200000 1.000000
vt 0.100000 0.500000
vt 0.100000 1.000000
vt -0.000000 0.500000
vt 0.750000 0.010000
vt 0.521746 0.175836
vt 0.608932 0.444164
vt 1.000000 1.000000
vt 0.391068 0.444164
vt 0.250000 0.490000
vt 0.021746 0.324164
vt 0.021746 0.175836
vt 0.108932 0.055836
vt 0.391068 0.055836
vt 0.478254 0.324164
vt -0.000000 1.000000
vt 0.750000 0.490000
vt 0.891068 0.444164
vt 0.978254 0.324164
vt 0.978254 0.175836
vt 0.891068 0.055836
vt 0.608932 0.055836
vt 0.521746 0.324164
vn -0.3473 0.9377 0.0000
vn -0.9725 0.2329 0.0000
vn 0.7047 0.7095 0.0000
vn -0.1493 0.9888 0.0000
vn 0.7901 -0.6130 0.0000
vn 0.9068 0.4215 0.0000
vn -0.4231 -0.9061 0.0000
vn 0.6652 -0.7467 0.0000
vn -0.0000 0.0000 1.0000
vn -0.9936 0.1126 0.0000
vn -0.3513 -0.9363 0.0000
vn -0.0000 -0.0000 -1.0000
g Cylinder_Cylinder_Material.001
usemtl Material.001
s off
f 1/1/1 4/2/1 3/3/1
f 4/2/2 5/4/2 3/3/2
f 6/5/3 7/6/3 5/4/3
f 8/7/4 9/8/4 7/6/4
f 10/9/5 11/10/5 9/8/5
f 12/11/6 13/12/6 11/10/6
f 14/13/7 15/14/7 13/12/7
f 16/15/8 17/16/8 15/14/8
f 8/17/9 20/18/9 12/19/9
f 18/20/10 19/21/10 17/16/10
f 20/22/11 1/23/11 19/21/11
f 11/24/12 15/25/12 19/26/12
f 1/1/1 2/27/1 4/2/1
f 4/2/2 6/5/2 5/4/2
f 6/5/3 8/7/3 7/6/3
f 8/7/4 10/9/4 9/8/4
f 10/9/5 12/11/5 11/10/5
f 12/11/6 14/13/6 13/12/6
f 14/13/7 16/15/7 15/14/7
f 16/15/8 18/20/8 17/16/8
f 4/28/9 2/29/9 20/18/9
f 20/18/9 18/30/9 16/31/9
f 16/31/9 14/32/9 12/19/9
f 12/19/9 10/33/9 8/17/9
f 8/17/9 6/34/9 4/28/9
f 4/28/9 20/18/9 8/17/9
f 20/18/9 16/31/9 12/19/9
f 18/20/10 20/22/10 19/21/10
f 20/22/11 2/35/11 1/23/11
f 19/26/12 1/36/12 3/37/12
f 3/37/12 5/38/12 7/39/12
f 7/39/12 9/40/12 11/24/12
f 11/24/12 13/41/12 15/25/12
f 15/25/12 17/42/12 19/26/12
f 19/26/12 3/37/12 7/39/12
f 7/39/12 11/24/12 19/26/12
