# Blender v2.83.0 OBJ File: ''
# www.blender.org
mtllib ground_corner_270.mtl
o Cylinder
v -0.560401 1.000000 0.234671
v -0.235683 1.000000 0.559389
v 0.548255 1.000000 0.234671
v 0.582398 1.000000 0.122115
v 0.593927 1.000000 0.005061
v 0.582398 1.000000 -0.111993
v 0.548255 1.000000 -0.224549
v 0.492809 1.000000 -0.328281
v 0.418191 1.000000 -0.419203
v 0.327270 1.000000 -0.493821
v 0.223538 1.000000 -0.549267
v 0.110982 1.000000 -0.583410
v -0.235683 1.000000 -0.549267
v -0.006073 1.000000 -0.594939
v -0.123127 1.000000 -0.583411
v -0.339415 1.000000 -0.493821
v -0.560401 1.000000 -0.224549
v -0.430337 1.000000 -0.419203
v -0.504955 1.000000 -0.328281
v -0.594544 1.000000 -0.111993
v -0.606073 1.000000 0.005061
v -0.594544 1.000000 0.122115
v -0.504955 1.000000 0.338403
v -0.430337 1.000000 0.429325
v -0.339415 1.000000 0.503943
v -0.123127 1.000000 0.593532
v -0.006073 1.000000 0.605061
v 0.110981 1.000000 0.593532
v 0.223537 1.000000 0.559389
v 0.327269 1.000000 0.503943
v 0.418191 1.000000 0.429325
v 0.492809 1.000000 0.338403
vt 0.341844 0.028269
vt 0.471731 0.158156
vt 0.341844 0.471731
vt 0.296822 0.485388
vt 0.250000 0.490000
vt 0.203179 0.485389
vt 0.158156 0.471731
vt 0.116663 0.449553
vt 0.080295 0.419706
vt 0.050447 0.383337
vt 0.028269 0.341844
vt 0.014612 0.296822
vt 0.028269 0.158156
vt 0.010000 0.250000
vt 0.014611 0.203179
vt 0.050447 0.116663
vt 0.158156 0.028269
vt 0.080294 0.080294
vt 0.116663 0.050447
vt 0.203178 0.014612
vt 0.250000 0.010000
vt 0.296822 0.014612
vt 0.383337 0.050447
vt 0.419706 0.080294
vt 0.449553 0.116663
vt 0.485388 0.203178
vt 0.490000 0.250000
vt 0.485388 0.296822
vt 0.471731 0.341844
vt 0.449553 0.383337
vt 0.419706 0.419706
vt 0.383337 0.449553
vn -0.0000 1.0000 -0.0000
g Cylinder_Cylinder_None
usemtl None
s 1
f 1/1/1 2/2/1 3/3/1
f 3/3/1 4/4/1 5/5/1
f 5/5/1 6/6/1 3/3/1
f 6/6/1 7/7/1 3/3/1
f 7/7/1 8/8/1 9/9/1
f 9/9/1 10/10/1 11/11/1
f 11/11/1 12/12/1 13/13/1
f 12/12/1 14/14/1 13/13/1
f 14/14/1 15/15/1 13/13/1
f 13/13/1 16/16/1 17/17/1
f 16/16/1 18/18/1 17/17/1
f 18/18/1 19/19/1 17/17/1
f 17/17/1 20/20/1 1/1/1
f 20/20/1 21/21/1 1/1/1
f 21/21/1 22/22/1 1/1/1
f 1/1/1 23/23/1 24/24/1
f 24/24/1 25/25/1 2/2/1
f 2/2/1 26/26/1 27/27/1
f 27/27/1 28/28/1 29/29/1
f 29/29/1 30/30/1 31/31/1
f 31/31/1 32/32/1 3/3/1
f 7/7/1 9/9/1 11/11/1
f 1/1/1 24/24/1 2/2/1
f 2/2/1 27/27/1 29/29/1
f 29/29/1 31/31/1 2/2/1
f 31/31/1 3/3/1 2/2/1
f 3/3/1 7/7/1 11/11/1
f 11/11/1 13/13/1 3/3/1
f 13/13/1 17/17/1 3/3/1
f 17/17/1 1/1/1 3/3/1
o Cube.001_Cube.002
v -0.106281 0.999900 0.231437
v 0.103699 0.999900 -0.995624
v -0.106282 0.999900 -0.995624
v 0.103700 0.999900 0.231437
vt 0.875000 0.500000
vt 0.625000 0.750000
vt 0.625000 0.500000
vt 0.875000 0.750000
vn 0.0000 1.0000 -0.0000
g Cube.001_Cube.002_Cube.001_Cube.002_None
usemtl None
s 1
f 33/33/2 34/34/2 35/35/2
f 33/33/2 36/36/2 34/34/2
o Cube.002_Cube.003
v 0.230324 0.999900 0.103624
v -0.996737 0.999900 -0.106357
v -0.996737 0.999900 0.103624
v 0.230323 0.999900 -0.106357
vt 0.875000 0.500000
vt 0.625000 0.750000
vt 0.625000 0.500000
vt 0.875000 0.750000
vn -0.0000 1.0000 0.0000
g Cube.002_Cube.003_Cube.002_Cube.003_None
usemtl None
s 1
f 37/37/3 38/38/3 39/39/3
f 37/37/3 40/40/3 38/38/3
