# Blender v2.83.0 OBJ File: 'ground_new.blend'
# www.blender.org
mtllib ground_straight_2.mtl
o Cylinder
v -0.000729 1.000000 0.640993
v -0.117783 1.000000 0.629464
v -0.230339 1.000000 0.595321
v -0.334071 1.000000 0.539875
v -0.424993 1.000000 0.465257
v -0.499611 1.000000 0.374335
v -0.555056 1.000000 0.270603
v -0.589200 1.000000 0.158047
v -0.600729 1.000000 0.040993
v -0.589200 1.000000 -0.076061
v -0.555057 1.000000 -0.188617
v -0.499611 1.000000 -0.292349
v -0.424993 1.000000 -0.383271
v -0.334071 1.000000 -0.457889
v -0.230339 1.000000 -0.513335
v -0.117783 1.000000 -0.547478
v -0.000729 1.000000 -0.559007
v 0.116326 1.000000 -0.547478
v 0.228881 1.000000 -0.513335
v 0.332614 1.000000 -0.457889
v 0.423536 1.000000 -0.383271
v 0.498153 1.000000 -0.292349
v 0.553599 1.000000 -0.188617
v 0.587743 1.000000 -0.076061
v 0.599271 1.000000 0.040993
v 0.587742 1.000000 0.158047
v 0.553599 1.000000 0.270603
v 0.498153 1.000000 0.374335
v 0.423535 1.000000 0.465257
v 0.332613 1.000000 0.539875
v 0.228881 1.000000 0.595321
v 0.116325 1.000000 0.629464
vt 0.341844 0.028269
vt 0.471731 0.158156
vt 0.341844 0.471731
vt 0.296822 0.485388
vt 0.250000 0.490000
vt 0.203179 0.485389
vt 0.158156 0.471731
vt 0.116663 0.449553
vt 0.080295 0.419706
vt 0.050447 0.383337
vt 0.028269 0.341844
vt 0.014612 0.296822
vt 0.028269 0.158156
vt 0.010000 0.250000
vt 0.014611 0.203179
vt 0.050447 0.116663
vt 0.158156 0.028269
vt 0.080294 0.080294
vt 0.116663 0.050447
vt 0.203178 0.014612
vt 0.250000 0.010000
vt 0.296822 0.014612
vt 0.383337 0.050447
vt 0.419706 0.080294
vt 0.449553 0.116663
vt 0.485388 0.203178
vt 0.490000 0.250000
vt 0.485388 0.296822
vt 0.471731 0.341844
vt 0.449553 0.383337
vt 0.419706 0.419706
vt 0.383337 0.449553
vn 0.0000 1.0000 0.0000
usemtl None
s off
f 15/1/1 11/2/1 3/3/1
f 3/3/1 2/4/1 1/5/1
f 1/5/1 32/6/1 3/3/1
f 32/6/1 31/7/1 3/3/1
f 31/7/1 30/8/1 29/9/1
f 29/9/1 28/10/1 27/11/1
f 27/11/1 26/12/1 23/13/1
f 26/12/1 25/14/1 23/13/1
f 25/14/1 24/15/1 23/13/1
f 23/13/1 22/16/1 19/17/1
f 22/16/1 21/18/1 19/17/1
f 21/18/1 20/19/1 19/17/1
f 19/17/1 18/20/1 15/1/1
f 18/20/1 17/21/1 15/1/1
f 17/21/1 16/22/1 15/1/1
f 15/1/1 14/23/1 13/24/1
f 13/24/1 12/25/1 11/2/1
f 11/2/1 10/26/1 9/27/1
f 9/27/1 8/28/1 7/29/1
f 7/29/1 6/30/1 5/31/1
f 5/31/1 4/32/1 3/3/1
f 31/7/1 29/9/1 27/11/1
f 15/1/1 13/24/1 11/2/1
f 11/2/1 9/27/1 7/29/1
f 7/29/1 5/31/1 11/2/1
f 5/31/1 3/3/1 11/2/1
f 3/3/1 31/7/1 27/11/1
f 27/11/1 23/13/1 3/3/1
f 23/13/1 19/17/1 3/3/1
f 19/17/1 15/1/1 3/3/1
o Cube.001_Cube.002
v -0.233409 0.975473 0.102713
v -0.233409 0.975473 -0.107268
v 0.993652 0.975473 0.102713
v 0.993652 0.975473 -0.107268
vt 0.875000 0.500000
vt 0.625000 0.750000
vt 0.625000 0.500000
vt 0.875000 0.750000
vn 0.0000 1.0000 0.0000
usemtl None
s off
f 34/33/2 35/34/2 36/35/2
f 34/33/2 33/36/2 35/34/2
o Cube.002_Cube.003
v -0.996858 0.975473 0.105826
v -0.996858 0.975473 -0.104155
v 0.230202 0.975473 0.105825
v 0.230202 0.975473 -0.104156
vt 0.875000 0.500000
vt 0.625000 0.750000
vt 0.625000 0.500000
vt 0.875000 0.750000
vn 0.0000 1.0000 -0.0000
usemtl None
s off
f 38/37/3 39/38/3 40/39/3
f 38/37/3 37/40/3 39/38/3
