# Blender v2.83.0 OBJ File: 'lara.blend'
# www.blender.org
mtllib lara.mtl
o torso_body
v 0.000000 0.000000 -0.200000
v 0.000000 0.600000 -0.200000
v 0.141421 0.000000 -0.141421
v 0.141421 0.600000 -0.141421
v 0.200000 0.000000 0.000000
v 0.200000 0.600000 0.000000
v 0.141421 0.000000 0.141421
v 0.141421 0.600000 0.141421
v -0.000000 0.000000 0.200000
v -0.000000 0.600000 0.200000
v -0.141421 0.000000 0.141421
v -0.141421 0.600000 0.141421
v -0.200000 0.000000 -0.000000
v -0.200000 0.600000 -0.000000
v -0.141421 0.000000 -0.141421
v -0.141421 0.600000 -0.141421
vt 1.000000 1.000000
vt 0.875000 0.500000
vt 1.000000 0.500000
vt 0.875000 1.000000
vt 0.750000 0.500000
vt 0.750000 1.000000
vt 0.625000 0.500000
vt 0.625000 1.000000
vt 0.500000 0.500000
vt 0.500000 1.000000
vt 0.375000 0.500000
vt 0.375000 1.000000
vt 0.250000 0.500000
vt 0.490000 0.250000
vt 0.250000 0.490000
vt 0.010000 0.250000
vt 0.250000 1.000000
vt 0.125000 0.500000
vt 0.125000 1.000000
vt 0.000000 0.500000
vt 0.919706 0.419706
vt 0.919706 0.080294
vt 0.580294 0.080294
vt 0.419706 0.419706
vt 0.080294 0.419706
vt 0.080294 0.080294
vt 0.250000 0.010000
vt 0.419706 0.080294
vt 0.000000 1.000000
vt 0.580294 0.419706
vt 0.750000 0.490000
vt 0.990000 0.250000
vt 0.750000 0.010000
vt 0.510000 0.250000
vn 0.3827 0.0000 -0.9239
vn 0.9239 0.0000 -0.3827
vn 0.9239 0.0000 0.3827
vn 0.3827 0.0000 0.9239
vn -0.3827 0.0000 0.9239
vn -0.9239 0.0000 0.3827
vn 0.0000 1.0000 0.0000
vn -0.9239 0.0000 -0.3827
vn -0.3827 0.0000 -0.9239
vn 0.0000 -1.0000 0.0000
g torso_body_Material.001
usemtl Material.001
s off
f 2/1/1 3/2/1 1/3/1
f 4/4/2 5/5/2 3/2/2
f 6/6/3 7/7/3 5/5/3
f 8/8/4 9/9/4 7/7/4
f 10/10/5 11/11/5 9/9/5
f 12/12/6 13/13/6 11/11/6
f 6/14/7 2/15/7 14/16/7
f 14/17/8 15/18/8 13/13/8
f 16/19/9 1/20/9 15/18/9
f 3/21/10 7/22/10 11/23/10
f 2/1/1 4/4/1 3/2/1
f 4/4/2 6/6/2 5/5/2
f 6/6/3 8/8/3 7/7/3
f 8/8/4 10/10/4 9/9/4
f 10/10/5 12/12/5 11/11/5
f 12/12/6 14/17/6 13/13/6
f 6/14/7 4/24/7 2/15/7
f 2/15/7 16/25/7 14/16/7
f 14/16/7 12/26/7 6/14/7
f 12/26/7 10/27/7 6/14/7
f 10/27/7 8/28/7 6/14/7
f 14/17/8 16/19/8 15/18/8
f 16/19/9 2/29/9 1/20/9
f 15/30/10 1/31/10 3/21/10
f 3/21/10 5/32/10 7/22/10
f 7/22/10 9/33/10 11/23/10
f 11/23/10 13/34/10 15/30/10
f 15/30/10 3/21/10 11/23/10
o direction_arrow
v 0.002492 0.581922 -0.172504
v 0.002492 0.632679 -0.172504
v 0.090407 0.581922 -0.020232
v 0.090407 0.632679 -0.020232
v -0.085422 0.581922 -0.020232
v -0.085422 0.632680 -0.020232
vt 1.000000 1.000000
vt 0.666667 0.500000
vt 1.000000 0.500000
vt 0.666667 1.000000
vt 0.333333 0.500000
vt 0.457846 0.130000
vt 0.250000 0.490000
vt 0.042154 0.130000
vt 0.333333 1.000000
vt -0.000000 0.500000
vt 0.750000 0.490000
vt 0.957846 0.130000
vt 0.542154 0.130000
vt -0.000000 1.000000
vn 0.8660 -0.0000 -0.5000
vn 0.0000 -0.0000 1.0000
vn 0.0000 1.0000 0.0000
vn -0.8660 -0.0000 -0.5000
vn 0.0000 -1.0000 0.0000
g direction_arrow_Material_1
usemtl Material_1
s off
f 18/35/11 19/36/11 17/37/11
f 20/38/12 21/39/12 19/36/12
f 20/40/13 18/41/13 22/42/13
f 22/43/14 17/44/14 21/39/14
f 17/45/15 19/46/15 21/47/15
f 18/35/11 20/38/11 19/36/11
f 20/38/12 22/43/12 21/39/12
f 22/43/14 18/48/14 17/44/14
