# Blender v2.83.0 OBJ File: 'level_1_test.blend'
# www.blender.org
mtllib level_1_test.mtl
o Cube
v 1.000000 1.000000 1.000000
v 1.000000 -1.000000 1.000000
v -1.000000 1.000000 1.000000
v -1.000000 -1.000000 1.000000
v 0.578636 2.755356 -2.685800
v 0.675691 0.061524 -3.123371
v -0.578636 2.755356 -2.685800
v -0.675691 0.061524 -3.123371
v 3.000000 1.000000 1.000000
v 3.000000 -1.000000 1.000000
v 1.000000 1.000000 1.000000
v 1.000000 -1.000000 1.000000
v 2.577395 2.273699 -2.735797
v 2.706209 -0.538327 -2.885847
v 1.422605 2.273699 -2.735797
v 1.293791 -0.538327 -2.885847
v 5.000000 1.000000 1.000000
v 5.000000 -1.000000 1.000000
v 3.000000 1.000000 1.000000
v 3.000000 -1.000000 1.000000
v 4.702915 3.221162 -2.452502
v 4.798224 0.073980 -2.906739
v 3.297084 3.221162 -2.452502
v 3.201776 0.073980 -2.906739
v 7.000000 1.000000 1.000000
v 7.000000 -1.000000 1.000000
v 5.000000 1.000000 1.000000
v 5.000000 -1.000000 1.000000
v 6.715812 3.439667 -4.280181
v 6.868190 -0.305574 -4.437238
v 5.284188 3.439667 -4.280181
v 5.131810 -0.305574 -4.437239
v 9.845786 4.623051 0.699169
v 9.933038 -0.087387 0.778273
v 7.000000 1.000000 1.000000
v 7.000000 -1.000000 1.000000
v 8.817637 2.814943 -1.362302
v 8.888549 -0.233479 -2.016342
v 7.182363 2.814943 -1.362302
v 7.111452 -0.233479 -2.016342
v 9.642136 2.169571 2.664933
v 9.642136 0.839706 2.664933
v 7.000000 1.000000 3.000000
v 7.000000 -1.000000 3.000000
v 9.642136 2.169571 1.335068
v 9.642136 0.839706 1.335068
v 7.000000 1.000000 1.000000
v 7.000000 -1.000000 1.000000
v 9.596447 3.769964 4.944293
v 9.770372 -0.375394 5.170713
v 7.000000 1.000000 5.000000
v 7.000000 -1.000000 5.000000
v 9.596447 3.769964 3.630565
v 9.770372 -0.375394 3.530930
v 7.000000 1.000000 3.000000
v 7.000000 -1.000000 3.000000
v 9.000000 -1.000000 5.000000
v 9.000000 -3.000000 5.000000
v 7.000000 -1.000000 5.000000
v 7.000000 -3.000000 5.000000
v 9.000000 -1.000000 3.000000
v 9.000000 -3.000000 3.000000
v 7.000000 -1.000000 3.000000
v 7.000000 -3.000000 3.000000
v 9.000000 -3.000000 5.000000
v 9.000000 -5.000000 5.000000
v 7.000000 -3.000000 5.000000
v 7.000000 -5.000000 5.000000
v 9.000000 -3.000000 3.000000
v 9.000000 -5.000000 3.000000
v 7.000000 -3.000000 3.000000
v 7.000000 -5.000000 3.000000
v 1.000000 -1.000000 -1.000000
v -1.000000 -1.000000 -1.000000
v -0.869155 2.385471 -0.783666
v 0.869155 2.385471 -0.783666
v 3.000000 -1.000000 -1.000000
v 1.000000 -1.000000 -1.000000
v 1.000000 1.000000 -1.000000
v 3.000000 1.000000 -1.000000
v 3.000000 -1.000000 -1.000000
v 1.000000 -1.000000 -1.000000
v 1.175565 2.626441 -1.392117
v 2.824435 2.626441 -1.392117
v 5.000000 -1.000000 -1.000000
v 3.000000 -1.000000 -1.000000
v 3.116333 2.620588 -0.744436
v 4.883667 2.620588 -0.744436
v 7.000000 -1.000000 -1.000000
v 5.000000 -1.000000 -1.000000
v 5.164423 3.048230 -1.157057
v 6.835577 3.048230 -1.157057
v 9.933038 -0.087387 -0.778272
v 7.000000 -1.000000 -1.000000
v 7.086015 2.344995 -0.483692
v 9.845786 4.623051 -0.699168
v 9.000000 -1.000000 5.000000
v 9.000000 -1.000000 3.000000
v 9.173925 3.624956 4.850663
v 9.173925 3.624956 3.339369
v 9.000000 -1.000000 3.000000
v 9.000000 -1.000000 1.000000
v 9.000000 1.000000 3.000000
v 9.000000 1.000000 1.000000
v 9.000000 -1.000000 1.000000
v 9.000000 -1.000000 -1.000000
v 9.087252 4.241638 0.879428
v 8.913985 2.344995 -0.483692
v -1.000000 1.000000 -1.000000
v 1.000000 1.000000 -1.000000
v -0.675691 1.412906 -3.123371
v 0.675691 1.412906 -3.123371
v 1.000000 1.246869 -1.242068
v 3.000000 1.246869 -1.242068
v 1.293791 0.874091 -2.885847
v 2.706209 0.874091 -2.885847
v 3.000000 1.000000 -1.000000
v 5.000000 1.000000 -1.000000
v 3.201776 1.670430 -2.906739
v 4.798224 1.670430 -2.906739
v 5.000000 1.000000 -1.000000
v 7.000000 1.000000 -1.000000
v 5.131810 1.430806 -4.437239
v 6.868190 1.430806 -4.437238
v 7.000000 1.000000 -1.000000
v 9.087252 4.241638 -0.879427
v 7.111452 1.543618 -2.016342
v 8.888549 1.543618 -2.016342
v 9.000000 1.000000 -1.000000
v 9.000000 1.000000 1.000000
v 9.933038 1.469158 -0.778272
v 9.933038 1.469158 0.778273
v 9.000000 1.000000 3.000000
v 9.000000 1.000000 5.000000
v 9.770372 1.264389 3.530930
v 9.770372 1.264389 5.170713
vt 0.875000 0.500000
vt 0.625000 0.750000
vt 0.625000 0.500000
vt 0.375000 1.000000
vt 0.375000 0.750000
vt 0.584461 0.040539
vt 0.415539 0.209461
vt 0.415539 0.040539
vt 0.375000 0.500000
vt 0.125000 0.750000
vt 0.125000 0.500000
vt 0.625000 0.250000
vt 0.375000 0.250000
vt 0.375000 0.000000
vt 0.625000 0.000000
vt 0.586573 0.197330
vt 0.622888 0.016356
vt 0.622888 0.233644
vt 0.586573 0.052671
vt 0.584461 0.209461
vt 0.875000 0.750000
vt 0.625000 1.000000
vt 0.875000 0.500000
vt 0.625000 0.750000
vt 0.625000 0.500000
vt 0.375000 1.000000
vt 0.375000 0.750000
vt 0.588276 0.036724
vt 0.411724 0.213276
vt 0.411724 0.036724
vt 0.375000 0.500000
vt 0.125000 0.750000
vt 0.125000 0.500000
vt 0.625000 0.250000
vt 0.375000 0.250000
vt 0.375000 0.000000
vt 0.375000 0.000000
vt 0.625000 0.000000
vt 0.625000 0.000000
vt 0.625000 0.000000
vt 0.375000 0.250000
vt 0.375000 0.250000
vt 0.625000 0.250000
vt 0.591198 0.052826
vt 0.622078 0.228054
vt 0.591198 0.197174
vt 0.622078 0.021946
vt 0.588276 0.213276
vt 0.875000 0.750000
vt 0.625000 1.000000
vt 0.625000 0.000000
vt 0.375000 0.250000
vt 0.875000 0.500000
vt 0.625000 0.750000
vt 0.625000 0.500000
vt 0.375000 1.000000
vt 0.375000 0.750000
vt 0.599778 0.025222
vt 0.400222 0.224778
vt 0.400222 0.025222
vt 0.375000 0.500000
vt 0.125000 0.750000
vt 0.125000 0.500000
vt 0.625000 0.250000
vt 0.375000 0.250000
vt 0.375000 0.000000
vt 0.625000 0.000000
vt 0.601092 0.212864
vt 0.623686 0.014542
vt 0.623686 0.235458
vt 0.601092 0.037136
vt 0.599778 0.224778
vt 0.875000 0.750000
vt 0.625000 1.000000
vt 0.875000 0.500000
vt 0.625000 0.750000
vt 0.625000 0.500000
vt 0.375000 1.000000
vt 0.375000 0.750000
vt 0.608524 0.016476
vt 0.391476 0.233524
vt 0.391476 0.016476
vt 0.375000 0.500000
vt 0.125000 0.750000
vt 0.125000 0.500000
vt 0.625000 0.250000
vt 0.375000 0.250000
vt 0.375000 0.000000
vt 0.625000 0.000000
vt 0.609277 0.035523
vt 0.624247 0.229447
vt 0.609277 0.214477
vt 0.624247 0.020553
vt 0.608524 0.233524
vt 0.875000 0.750000
vt 0.625000 1.000000
vt 0.875000 0.500000
vt 0.625000 0.750000
vt 0.625000 0.500000
vt 0.375000 1.000000
vt 0.375000 0.750000
vt 0.611069 0.013931
vt 0.388931 0.236069
vt 0.388931 0.013931
vt 0.375000 0.500000
vt 0.125000 0.750000
vt 0.125000 0.500000
vt 0.597284 0.277716
vt 0.402716 0.472284
vt 0.402716 0.277716
vt 0.375000 0.250000
vt 0.375000 0.000000
vt 0.625000 0.000000
vt 0.625000 0.250000
vt 0.612013 0.022795
vt 0.624056 0.239248
vt 0.612013 0.227205
vt 0.599876 0.287604
vt 0.622408 0.484928
vt 0.599876 0.462396
vt 0.624056 0.010752
vt 0.611069 0.236069
vt 0.622408 0.265072
vt 0.597284 0.472284
vt 0.875000 0.750000
vt 0.625000 1.000000
vt 0.875000 0.500000
vt 0.625000 0.750000
vt 0.625000 0.500000
vt 0.375000 1.000000
vt 0.375000 0.750000
vt 0.625000 0.000000
vt 0.375000 0.250000
vt 0.375000 0.000000
vt 0.375000 0.500000
vt 0.125000 0.750000
vt 0.125000 0.500000
vt 0.583117 0.291883
vt 0.416883 0.458117
vt 0.416883 0.291883
vt 0.625000 0.250000
vt 0.583117 0.458117
vt 0.875000 0.750000
vt 0.625000 1.000000
vt 0.875000 0.500000
vt 0.625000 0.750000
vt 0.625000 0.500000
vt 0.375000 1.000000
vt 0.375000 0.750000
vt 0.625000 0.000000
vt 0.375000 0.250000
vt 0.375000 0.000000
vt 0.375000 0.500000
vt 0.125000 0.750000
vt 0.125000 0.500000
vt 0.602486 0.272514
vt 0.397514 0.477486
vt 0.397514 0.272514
vt 0.625000 0.250000
vt 0.607569 0.294869
vt 0.619917 0.471432
vt 0.607569 0.459084
vt 0.619917 0.282521
vt 0.602486 0.477486
vt 0.875000 0.750000
vt 0.625000 1.000000
vt 0.875000 0.500000
vt 0.625000 0.750000
vt 0.625000 0.500000
vt 0.375000 1.000000
vt 0.375000 0.750000
vt 0.625000 0.000000
vt 0.375000 0.250000
vt 0.375000 0.000000
vt 0.375000 0.500000
vt 0.125000 0.750000
vt 0.125000 0.500000
vt 0.625000 0.250000
vt 0.875000 0.750000
vt 0.625000 1.000000
vt 0.875000 0.500000
vt 0.625000 0.750000
vt 0.625000 0.500000
vt 0.375000 1.000000
vt 0.375000 0.750000
vt 0.625000 0.000000
vt 0.375000 0.250000
vt 0.375000 0.000000
vt 0.375000 0.500000
vt 0.125000 0.750000
vt 0.125000 0.500000
vt 0.625000 0.250000
vt 0.875000 0.750000
vt 0.625000 1.000000
vn 0.0000 1.0000 0.0000
vn -1.0000 0.0000 -0.0000
vn 0.0000 0.0000 -1.0000
vn 0.0000 -1.0000 0.0000
vn 0.0000 0.0000 1.0000
vn 1.0000 0.0000 0.0000
vn 0.0000 -0.8945 -0.4472
vn -0.9885 0.0000 -0.1510
vn 0.9885 0.0000 -0.1510
vn 0.0000 0.9816 0.1909
vn -0.0000 -0.1543 0.9880
vn 0.0000 0.3099 -0.9508
vn -0.9852 0.1131 -0.1285
vn 0.9852 0.1131 -0.1285
vn -0.0000 0.7001 0.7140
vn 0.0000 -0.9713 -0.2378
vn -0.9844 0.0000 -0.1759
vn 0.9873 -0.0170 -0.1580
vn 0.0000 0.9672 -0.2539
vn -0.0000 0.1081 0.9941
vn 0.0000 0.1066 -0.9943
vn -0.9734 0.1015 -0.2056
vn 0.9737 0.1110 -0.1992
vn -0.9873 -0.0170 -0.1580
vn 0.9844 0.0000 -0.1759
vn -0.9737 0.1110 -0.1992
vn 0.9734 0.1015 -0.2056
vn 0.0000 -0.8713 -0.4908
vn -0.9944 0.0000 -0.1052
vn 0.9944 0.0000 -0.1052
vn -0.0000 0.9434 0.3317
vn -0.0000 -0.1558 0.9878
vn 0.0000 0.2811 -0.9597
vn -0.9936 0.0833 -0.0759
vn 0.9936 0.0833 -0.0759
vn 0.0000 -0.9802 -0.1980
vn -0.9993 0.0000 -0.0383
vn 0.9993 0.0000 -0.0383
vn -0.0000 0.9922 0.1244
vn 0.0000 0.0765 0.9971
vn 0.0000 0.0779 -0.9970
vn -0.9966 0.0778 -0.0285
vn 0.9966 0.0778 -0.0285
vn 0.0000 -0.7984 -0.6021
vn -0.9940 0.0000 -0.1090
vn 0.9940 0.0000 -0.1090
vn 0.0000 0.8818 0.4716
vn 0.6992 -0.7149 0.0000
vn 0.2312 0.0000 0.9729
vn 0.2312 0.0000 -0.9729
vn -0.4492 0.8934 0.0000
vn 0.0000 -0.3584 0.9336
vn 0.0000 0.4575 -0.8892
vn -0.9942 0.0875 -0.0622
vn 0.9942 0.0875 -0.0622
vn -0.9996 0.0269 0.0000
vn 0.9996 0.0277 0.0000
vn 0.2166 0.0305 0.9758
vn 0.2166 0.0305 -0.9758
vn 0.9441 -0.3295 0.0000
vn 0.4626 0.0000 0.8866
vn 0.4626 0.0000 -0.8866
vn -0.8766 0.4813 0.0000
vn 0.6298 -0.7768 0.0000
vn -0.2163 0.0000 0.9763
vn 0.5675 0.0000 -0.8234
vn -0.3246 0.9458 0.0000
vn -0.9978 0.0661 0.0000
vn 0.9976 0.0692 0.0000
vn -0.2389 0.0709 0.9684
vn 0.5493 0.0712 -0.8326
g Cube_Cube_Material
usemtl Material
s off
f 110/1/1 3/2/1 1/3/1
f 3/2/2 74/4/2 4/5/2
f 111/6/3 6/7/3 8/8/3
f 2/9/4 74/10/4 73/11/4
f 1/3/5 4/5/5 2/9/5
f 110/12/6 2/9/6 73/13/6
f 6/7/7 74/14/7 8/8/7
f 8/8/8 109/15/8 111/6/8
f 6/7/9 110/12/9 73/13/9
f 5/16/10 75/17/10 76/18/10
f 75/17/11 110/12/11 76/18/11
f 5/16/12 111/6/12 7/19/12
f 7/19/13 109/15/13 75/17/13
f 5/16/14 110/12/14 112/20/14
f 110/1/1 109/21/1 3/2/1
f 3/2/2 109/22/2 74/4/2
f 111/6/3 112/20/3 6/7/3
f 2/9/4 4/5/4 74/10/4
f 1/3/5 3/2/5 4/5/5
f 110/12/6 1/3/6 2/9/6
f 6/7/7 73/13/7 74/14/7
f 8/8/8 74/14/8 109/15/8
f 6/7/9 112/20/9 110/12/9
f 5/16/10 7/19/10 75/17/10
f 75/17/11 109/15/11 110/12/11
f 5/16/12 112/20/12 111/6/12
f 7/19/13 111/6/13 109/15/13
f 5/16/14 76/18/14 110/12/14
g Cube_Cube_Material.001
usemtl Material.001
f 80/23/1 11/24/1 9/25/1
f 11/24/2 78/26/2 12/27/2
f 115/28/3 14/29/3 16/30/3
f 10/31/4 78/32/4 77/33/4
f 9/25/5 12/27/5 10/31/5
f 80/34/6 10/31/6 77/35/6
f 82/36/5 77/35/5 78/37/5
f 113/38/2 78/39/2 79/40/2
f 81/41/5 80/42/5 77/35/5
f 113/38/15 80/34/15 114/43/15
f 14/29/16 82/36/16 16/30/16
f 16/30/17 113/38/17 115/28/17
f 14/29/18 114/43/18 81/41/18
f 15/44/19 84/45/19 13/46/19
f 83/47/20 114/43/20 84/45/20
f 13/46/21 115/28/21 15/44/21
f 15/44/22 113/38/22 83/47/22
f 13/46/23 114/43/23 116/48/23
f 80/23/1 79/49/1 11/24/1
f 11/24/2 79/50/2 78/26/2
f 115/28/3 116/48/3 14/29/3
f 10/31/4 12/27/4 78/32/4
f 9/25/5 11/24/5 12/27/5
f 80/34/6 9/25/6 10/31/6
f 82/36/5 81/41/5 77/35/5
f 113/38/5 82/51/5 78/39/5
f 81/41/6 114/52/6 80/42/6
f 113/38/15 79/40/15 80/34/15
f 14/29/16 81/41/16 82/36/16
f 16/30/24 82/36/24 113/38/24
f 14/29/25 116/48/25 114/43/25
f 15/44/19 83/47/19 84/45/19
f 83/47/20 113/38/20 114/43/20
f 13/46/21 116/48/21 115/28/21
f 15/44/26 115/28/26 113/38/26
f 13/46/27 84/45/27 114/43/27
g Cube_Cube_Material.002
usemtl Material.002
f 118/53/1 19/54/1 17/55/1
f 19/54/2 86/56/2 20/57/2
f 119/58/3 22/59/3 24/60/3
f 18/61/4 86/62/4 85/63/4
f 17/55/5 20/57/5 18/61/5
f 118/64/6 18/61/6 85/65/6
f 22/59/28 86/66/28 24/60/28
f 24/60/29 117/67/29 119/58/29
f 22/59/30 118/64/30 85/65/30
f 21/68/31 87/69/31 88/70/31
f 87/69/32 118/64/32 88/70/32
f 21/68/33 119/58/33 23/71/33
f 87/69/34 119/58/34 117/67/34
f 88/70/35 120/72/35 21/68/35
f 118/53/1 117/73/1 19/54/1
f 19/54/2 117/74/2 86/56/2
f 119/58/3 120/72/3 22/59/3
f 18/61/4 20/57/4 86/62/4
f 17/55/5 19/54/5 20/57/5
f 118/64/6 17/55/6 18/61/6
f 22/59/28 85/65/28 86/66/28
f 24/60/29 86/66/29 117/67/29
f 22/59/30 120/72/30 118/64/30
f 21/68/31 23/71/31 87/69/31
f 87/69/32 117/67/32 118/64/32
f 21/68/33 120/72/33 119/58/33
f 87/69/34 23/71/34 119/58/34
f 88/70/35 118/64/35 120/72/35
g Cube_Cube_Material.003
usemtl Material.003
f 122/75/1 27/76/1 25/77/1
f 27/76/2 90/78/2 28/79/2
f 123/80/3 30/81/3 32/82/3
f 26/83/4 90/84/4 89/85/4
f 25/77/5 28/79/5 26/83/5
f 122/86/6 26/83/6 89/87/6
f 30/81/36 90/88/36 32/82/36
f 32/82/37 121/89/37 123/80/37
f 30/81/38 122/86/38 89/87/38
f 31/90/39 92/91/39 29/92/39
f 91/93/40 122/86/40 92/91/40
f 29/92/41 123/80/41 31/90/41
f 91/93/42 123/80/42 121/89/42
f 92/91/43 124/94/43 29/92/43
f 122/75/1 121/95/1 27/76/1
f 27/76/2 121/96/2 90/78/2
f 123/80/3 124/94/3 30/81/3
f 26/83/4 28/79/4 90/84/4
f 25/77/5 27/76/5 28/79/5
f 122/86/6 25/77/6 26/83/6
f 30/81/36 89/87/36 90/88/36
f 32/82/37 90/88/37 121/89/37
f 30/81/38 124/94/38 122/86/38
f 31/90/39 91/93/39 92/91/39
f 91/93/40 121/89/40 122/86/40
f 29/92/41 124/94/41 123/80/41
f 91/93/42 31/90/42 123/80/42
f 92/91/43 122/86/43 124/94/43
g Cube_Cube_Material.004
usemtl Material.004
f 129/97/1 35/98/1 130/99/1
f 35/98/2 94/100/2 36/101/2
f 127/102/3 38/103/3 40/104/3
f 105/105/4 94/106/4 106/107/4
f 130/99/5 36/101/5 105/105/5
f 131/108/6 34/109/6 93/110/6
f 40/104/44 106/111/44 94/112/44
f 40/104/45 125/113/45 127/102/45
f 38/103/46 129/114/46 106/111/46
f 39/115/47 108/116/47 37/117/47
f 34/109/48 106/111/48 93/110/48
f 34/109/49 130/99/49 105/105/49
f 93/110/50 129/114/50 131/108/50
f 96/118/51 107/119/51 33/120/51
f 95/121/52 129/114/52 108/116/52
f 37/117/53 127/102/53 39/115/53
f 95/121/54 127/102/54 125/113/54
f 108/116/55 128/122/55 37/117/55
f 126/123/56 130/99/56 107/119/56
f 33/120/57 131/108/57 96/118/57
f 107/119/58 132/124/58 33/120/58
f 126/123/59 131/108/59 129/114/59
f 129/97/1 125/125/1 35/98/1
f 35/98/2 125/126/2 94/100/2
f 127/102/3 128/122/3 38/103/3
f 105/105/4 36/101/4 94/106/4
f 130/99/5 35/98/5 36/101/5
f 131/108/6 132/124/6 34/109/6
f 40/104/44 38/103/44 106/111/44
f 40/104/45 94/112/45 125/113/45
f 38/103/46 128/122/46 129/114/46
f 39/115/47 95/121/47 108/116/47
f 34/109/48 105/105/48 106/111/48
f 34/109/49 132/124/49 130/99/49
f 93/110/50 106/111/50 129/114/50
f 96/118/51 126/123/51 107/119/51
f 95/121/52 125/113/52 129/114/52
f 37/117/53 128/122/53 127/102/53
f 95/121/54 39/115/54 127/102/54
f 108/116/55 129/114/55 128/122/55
f 126/123/56 129/114/56 130/99/56
f 33/120/57 132/124/57 131/108/57
f 107/119/58 130/99/58 132/124/58
f 126/123/59 96/118/59 131/108/59
g Cube_Cube_Material.005
usemtl Material.005
f 104/127/1 43/128/1 103/129/1
f 43/128/2 48/130/2 44/131/2
f 47/132/3 102/133/3 48/134/3
f 101/135/4 48/136/4 102/137/4
f 103/129/5 44/131/5 101/135/5
f 45/138/6 42/139/6 46/140/6
f 42/139/60 102/133/60 46/140/60
f 42/139/61 103/129/61 101/135/61
f 46/140/62 104/141/62 45/138/62
f 41/142/63 104/141/63 103/129/63
f 104/127/1 47/143/1 43/128/1
f 43/128/2 47/144/2 48/130/2
f 47/132/3 104/141/3 102/133/3
f 101/135/4 44/131/4 48/136/4
f 103/129/5 43/128/5 44/131/5
f 45/138/6 41/142/6 42/139/6
f 42/139/60 101/135/60 102/133/60
f 42/139/61 41/142/61 103/129/61
f 46/140/62 102/133/62 104/141/62
f 41/142/63 45/138/63 104/141/63
g Cube_Cube_Material.006
usemtl Material.006
f 133/145/1 51/146/1 134/147/1
f 51/146/2 56/148/2 52/149/2
f 55/150/3 98/151/3 56/152/3
f 97/153/4 56/154/4 98/155/4
f 134/147/5 52/149/5 97/153/5
f 135/156/6 50/157/6 54/158/6
f 54/158/64 97/153/64 98/151/64
f 50/157/65 134/147/65 97/153/65
f 54/158/66 133/159/66 135/156/66
f 53/160/67 99/161/67 49/162/67
f 100/163/68 134/147/68 99/161/68
f 49/162/69 135/156/69 53/160/69
f 99/161/70 136/164/70 49/162/70
f 100/163/71 135/156/71 133/159/71
f 133/145/1 55/165/1 51/146/1
f 51/146/2 55/166/2 56/148/2
f 55/150/3 133/159/3 98/151/3
f 97/153/4 52/149/4 56/154/4
f 134/147/5 51/146/5 52/149/5
f 135/156/6 136/164/6 50/157/6
f 54/158/64 50/157/64 97/153/64
f 50/157/65 136/164/65 134/147/65
f 54/158/66 98/151/66 133/159/66
f 53/160/67 100/163/67 99/161/67
f 100/163/68 133/159/68 134/147/68
f 49/162/69 136/164/69 135/156/69
f 99/161/70 134/147/70 136/164/70
f 100/163/71 53/160/71 135/156/71
g Cube_Cube_Material.007
usemtl Material.007
f 61/167/1 59/168/1 57/169/1
f 59/168/2 64/170/2 60/171/2
f 63/172/3 62/173/3 64/174/3
f 58/175/4 64/176/4 62/177/4
f 57/169/5 60/171/5 58/175/5
f 61/178/6 58/175/6 62/173/6
f 61/167/1 63/179/1 59/168/1
f 59/168/2 63/180/2 64/170/2
f 63/172/3 61/178/3 62/173/3
f 58/175/4 60/171/4 64/176/4
f 57/169/5 59/168/5 60/171/5
f 61/178/6 57/169/6 58/175/6
g Cube_Cube_Material.008
usemtl Material.008
f 69/181/1 67/182/1 65/183/1
f 67/182/2 72/184/2 68/185/2
f 71/186/3 70/187/3 72/188/3
f 66/189/4 72/190/4 70/191/4
f 65/183/5 68/185/5 66/189/5
f 69/192/6 66/189/6 70/187/6
f 69/181/1 71/193/1 67/182/1
f 67/182/2 71/194/2 72/184/2
f 71/186/3 69/192/3 70/187/3
f 66/189/4 68/185/4 72/190/4
f 65/183/5 67/182/5 68/185/5
f 69/192/6 65/183/6 66/189/6
