# Blender v2.83.0 OBJ File: 'level_3_test.blend'
# www.blender.org
mtllib level_3_test.mtl
o Cube
v 1.000000 1.000000 -1.000000
v 1.000000 -1.000000 -1.000000
v 1.000000 1.000000 1.000000
v 1.000000 -1.000000 1.000000
v -1.000000 1.000000 -1.000000
v -1.000000 -1.000000 -1.000000
v -1.000000 1.000000 1.000000
v -1.000000 -1.000000 1.000000
vt 0.625000 0.750000
vt 0.375000 1.000000
vt 0.375000 0.750000
vt 0.625000 0.000000
vt 0.375000 0.250000
vt 0.375000 0.000000
vt 0.375000 0.500000
vt 0.125000 0.750000
vt 0.125000 0.500000
vt 0.625000 0.250000
vt 0.625000 1.000000
vt 0.625000 0.500000
vn 0.0000 0.0000 1.0000
vn -1.0000 0.0000 0.0000
vn 0.0000 -1.0000 0.0000
vn 0.0000 0.0000 -1.0000
g Cube_Cube_Material
usemtl Material
s off
f 3/1/1 8/2/1 4/3/1
f 7/4/2 6/5/2 8/6/2
f 2/7/3 8/8/3 6/9/3
f 5/10/4 2/7/4 6/5/4
f 3/1/1 7/11/1 8/2/1
f 7/4/2 5/10/2 6/5/2
f 2/7/3 4/3/3 8/8/3
f 5/10/4 1/12/4 2/7/4
o Cube.001
v 3.000000 -1.000000 -1.000000
v 3.000000 1.000000 1.000000
v 3.000000 -1.000000 1.000000
v 1.000000 -1.000000 -1.000000
v 1.000000 1.000000 1.000000
v 1.000000 -1.000000 1.000000
vt 0.625000 0.750000
vt 0.375000 1.000000
vt 0.375000 0.750000
vt 0.375000 0.500000
vt 0.125000 0.750000
vt 0.125000 0.500000
vt 0.625000 1.000000
vn 0.0000 0.0000 1.0000
vn 0.0000 -1.0000 0.0000
g Cube.001_Cube.001_Material.001
usemtl Material.001
s off
f 10/13/5 14/14/5 11/15/5
f 9/16/6 14/17/6 12/18/6
f 10/13/5 13/19/5 14/14/5
f 9/16/6 11/15/6 14/17/6
o Cube.002
v 5.000000 1.000000 -1.000000
v 5.000000 -1.000000 -1.000000
v 5.000000 1.000000 1.000000
v 5.000000 -1.000000 1.000000
v 3.000000 1.000000 -1.000000
v 3.000000 -1.000000 -1.000000
v 3.000000 1.000000 1.000000
v 3.000000 -1.000000 1.000000
vt 0.625000 0.750000
vt 0.375000 1.000000
vt 0.375000 0.750000
vt 0.375000 0.500000
vt 0.125000 0.750000
vt 0.125000 0.500000
vt 0.625000 0.500000
vt 0.625000 0.250000
vt 0.375000 0.250000
vt 0.625000 1.000000
vn 0.0000 0.0000 1.0000
vn 0.0000 -1.0000 0.0000
vn 1.0000 0.0000 0.0000
vn 0.0000 0.0000 -1.0000
g Cube.002_Cube.002_Material.002
usemtl Material.002
s off
f 17/20/7 22/21/7 18/22/7
f 16/23/8 22/24/8 20/25/8
f 15/26/9 18/22/9 16/23/9
f 19/27/10 16/23/10 20/28/10
f 17/20/7 21/29/7 22/21/7
f 16/23/8 18/22/8 22/24/8
f 15/26/9 17/20/9 18/22/9
f 19/27/10 15/26/10 16/23/10
o Cube.003
v 3.000000 1.000000 -3.000000
v 3.000000 -1.000000 -3.000000
v 3.000000 1.000000 -1.000000
v 3.000000 -1.000000 -1.000000
v 1.000000 1.000000 -3.000000
v 1.000000 -1.000000 -3.000000
v 1.000000 1.000000 -1.000000
v 1.000000 -1.000000 -1.000000
vt 0.625000 0.000000
vt 0.375000 0.250000
vt 0.375000 0.000000
vt 0.375000 0.500000
vt 0.125000 0.750000
vt 0.125000 0.500000
vt 0.625000 0.500000
vt 0.375000 0.750000
vt 0.625000 0.250000
vt 0.625000 0.750000
vn -1.0000 0.0000 0.0000
vn 0.0000 -1.0000 0.0000
vn 1.0000 0.0000 0.0000
vn 0.0000 0.0000 -1.0000
g Cube.003_Cube.003_Material.003
usemtl Material.003
s off
f 29/30/11 28/31/11 30/32/11
f 24/33/12 30/34/12 28/35/12
f 23/36/13 26/37/13 24/33/13
f 27/38/14 24/33/14 28/31/14
f 29/30/11 27/38/11 28/31/11
f 24/33/12 26/37/12 30/34/12
f 23/36/13 25/39/13 26/37/13
f 27/38/14 23/36/14 24/33/14
o Cube.004
v 3.000000 3.000000 -3.000000
v 3.000000 1.000000 -3.000000
v 3.000000 3.000000 -1.000000
v 3.000000 1.000000 -1.000000
v 1.000000 3.000000 -3.000000
v 1.000000 1.000000 -3.000000
v 1.000000 3.000000 -1.000000
v 1.000000 1.000000 -1.000000
vt 0.625000 0.000000
vt 0.375000 0.250000
vt 0.375000 0.000000
vt 0.625000 0.500000
vt 0.375000 0.750000
vt 0.375000 0.500000
vt 0.625000 0.250000
vt 0.625000 0.750000
vn -1.0000 0.0000 0.0000
vn 1.0000 0.0000 0.0000
vn 0.0000 0.0000 -1.0000
g Cube.004_Cube.004_Material.004
usemtl Material.004
s off
f 37/40/15 36/41/15 38/42/15
f 31/43/16 34/44/16 32/45/16
f 35/46/17 32/45/17 36/41/17
f 37/40/15 35/46/15 36/41/15
f 31/43/16 33/47/16 34/44/16
f 35/46/17 31/43/17 32/45/17
o Cube.005
v 11.000000 1.000000 -1.000000
v 11.000000 -1.000000 -1.000000
v 11.000000 1.000000 1.000000
v 11.000000 -1.000000 1.000000
v 9.000000 1.000000 -1.000000
v 9.000000 -1.000000 -1.000000
v 9.000000 1.000000 1.000000
v 9.000000 -1.000000 1.000000
vt 0.625000 0.750000
vt 0.375000 1.000000
vt 0.375000 0.750000
vt 0.375000 0.500000
vt 0.125000 0.750000
vt 0.125000 0.500000
vt 0.625000 0.250000
vt 0.375000 0.250000
vt 0.625000 1.000000
vt 0.625000 0.500000
vn 0.0000 0.0000 1.0000
vn 0.0000 -1.0000 0.0000
vn 0.0000 0.0000 -1.0000
g Cube.005_Cube.005_Material.005
usemtl Material.005
s off
f 41/48/18 46/49/18 42/50/18
f 40/51/19 46/52/19 44/53/19
f 43/54/20 40/51/20 44/55/20
f 41/48/18 45/56/18 46/49/18
f 40/51/19 42/50/19 46/52/19
f 43/54/20 39/57/20 40/51/20
o Cube.006
v 9.000000 1.000000 -1.000000
v 9.000000 -1.000000 -1.000000
v 9.000000 1.000000 1.000000
v 9.000000 -1.000000 1.000000
v 7.000000 1.000000 -1.000000
v 7.000000 -1.000000 -1.000000
v 7.000000 1.000000 1.000000
v 7.000000 -1.000000 1.000000
vt 0.625000 0.750000
vt 0.375000 1.000000
vt 0.375000 0.750000
vt 0.625000 0.000000
vt 0.375000 0.250000
vt 0.375000 0.000000
vt 0.375000 0.500000
vt 0.125000 0.750000
vt 0.125000 0.500000
vt 0.625000 0.250000
vt 0.625000 1.000000
vt 0.625000 0.500000
vn 0.0000 0.0000 1.0000
vn -1.0000 0.0000 0.0000
vn 0.0000 -1.0000 0.0000
vn 0.0000 0.0000 -1.0000
g Cube.006_Cube.006_Material.006
usemtl Material.006
s off
f 49/58/21 54/59/21 50/60/21
f 53/61/22 52/62/22 54/63/22
f 48/64/23 54/65/23 52/66/23
f 51/67/24 48/64/24 52/62/24
f 49/58/21 53/68/21 54/59/21
f 53/61/22 51/67/22 52/62/22
f 48/64/23 50/60/23 54/65/23
f 51/67/24 47/69/24 48/64/24
o Cube.008
v 15.000000 1.000000 -1.000000
v 15.000000 -1.000000 -1.000000
v 15.000000 -1.000000 1.000000
v 13.000000 1.000000 -1.000000
v 13.000000 -1.000000 -1.000000
v 13.000000 -1.000000 1.000000
vt 0.375000 0.500000
vt 0.125000 0.750000
vt 0.125000 0.500000
vt 0.625000 0.250000
vt 0.375000 0.250000
vt 0.375000 0.750000
vt 0.625000 0.500000
vn 0.0000 -1.0000 0.0000
vn 0.0000 0.0000 -1.0000
g Cube.008_Cube.008_Material.008
usemtl Material.008
s off
f 56/70/25 60/71/25 59/72/25
f 58/73/26 56/70/26 59/74/26
f 56/70/25 57/75/25 60/71/25
f 58/73/26 55/76/26 56/70/26
o Cube.007
v 13.000000 1.000000 -1.000000
v 13.000000 -1.000000 -1.000000
v 13.000000 1.000000 1.000000
v 13.000000 -1.000000 1.000000
v 11.000000 1.000000 -1.000000
v 11.000000 -1.000000 -1.000000
v 11.000000 1.000000 1.000000
v 11.000000 -1.000000 1.000000
vt 0.625000 0.750000
vt 0.375000 1.000000
vt 0.375000 0.750000
vt 0.375000 0.500000
vt 0.125000 0.750000
vt 0.125000 0.500000
vt 0.625000 0.250000
vt 0.375000 0.250000
vt 0.625000 1.000000
vt 0.625000 0.500000
vn 0.0000 0.0000 1.0000
vn 0.0000 -1.0000 0.0000
vn 0.0000 0.0000 -1.0000
g Cube.007_Cube.007_Material.007
usemtl Material.007
s off
f 63/77/27 68/78/27 64/79/27
f 62/80/28 68/81/28 66/82/28
f 65/83/29 62/80/29 66/84/29
f 63/77/27 67/85/27 68/78/27
f 62/80/28 64/79/28 68/81/28
f 65/83/29 61/86/29 62/80/29
o Cube.009
v 15.000000 1.000000 1.000000
v 15.000000 -1.000000 1.000000
v 15.000000 1.000000 3.000000
v 15.000000 -1.000000 3.000000
v 13.000000 1.000000 1.000000
v 13.000000 -1.000000 1.000000
v 13.000000 1.000000 3.000000
v 13.000000 -1.000000 3.000000
vt 0.625000 0.000000
vt 0.375000 0.250000
vt 0.375000 0.000000
vt 0.375000 0.500000
vt 0.125000 0.750000
vt 0.125000 0.500000
vt 0.625000 0.500000
vt 0.375000 0.750000
vt 0.625000 0.250000
vt 0.625000 0.750000
vn -1.0000 0.0000 0.0000
vn 0.0000 -1.0000 0.0000
vn 1.0000 0.0000 0.0000
g Cube.009_Cube.009_Material.009
usemtl Material.009
s off
f 75/87/30 74/88/30 76/89/30
f 70/90/31 76/91/31 74/92/31
f 69/93/32 72/94/32 70/90/32
f 75/87/30 73/95/30 74/88/30
f 70/90/31 72/94/31 76/91/31
f 69/93/32 71/96/32 72/94/32
o Cube.010
v 15.000000 -1.000000 3.000000
v 15.000000 1.000000 5.000000
v 15.000000 -1.000000 5.000000
v 13.000000 1.000000 3.000000
v 13.000000 -1.000000 3.000000
v 13.000000 1.000000 5.000000
v 13.000000 -1.000000 5.000000
vt 0.625000 0.750000
vt 0.375000 1.000000
vt 0.375000 0.750000
vt 0.625000 0.000000
vt 0.375000 0.250000
vt 0.375000 0.000000
vt 0.375000 0.500000
vt 0.125000 0.750000
vt 0.125000 0.500000
vt 0.625000 1.000000
vt 0.625000 0.250000
vn 0.0000 0.0000 1.0000
vn -1.0000 0.0000 0.0000
vn 0.0000 -1.0000 0.0000
g Cube.010_Cube.010_Material.010
usemtl Material.010
s off
f 78/97/33 83/98/33 79/99/33
f 82/100/34 81/101/34 83/102/34
f 77/103/35 83/104/35 81/105/35
f 78/97/33 82/106/33 83/98/33
f 82/100/34 80/107/34 81/101/34
f 77/103/35 79/99/35 83/104/35
o Cube.011
v 17.000000 1.000000 3.000000
v 17.000000 -1.000000 3.000000
v 17.000000 1.000000 5.000000
v 17.000000 -1.000000 5.000000
v 15.000000 1.000000 3.000000
v 15.000000 -1.000000 3.000000
v 15.000000 1.000000 5.000000
v 15.000000 -1.000000 5.000000
vt 0.625000 0.750000
vt 0.375000 1.000000
vt 0.375000 0.750000
vt 0.375000 0.500000
vt 0.125000 0.750000
vt 0.125000 0.500000
vt 0.625000 0.250000
vt 0.375000 0.250000
vt 0.625000 1.000000
vt 0.625000 0.500000
vn 0.0000 0.0000 1.0000
vn 0.0000 -1.0000 0.0000
vn 0.0000 0.0000 -1.0000
g Cube.011_Cube.011_Material.011
usemtl Material.011
s off
f 86/108/36 91/109/36 87/110/36
f 85/111/37 91/112/37 89/113/37
f 88/114/38 85/111/38 89/115/38
f 86/108/36 90/116/36 91/109/36
f 85/111/37 87/110/37 91/112/37
f 88/114/38 84/117/38 85/111/38
o Cube.012
v 19.000000 1.000000 3.000000
v 19.000000 -1.000000 3.000000
v 19.000000 1.000000 5.000000
v 19.000000 -1.000000 5.000000
v 17.000000 1.000000 3.000000
v 17.000000 -1.000000 3.000000
v 17.000000 1.000000 5.000000
v 17.000000 -1.000000 5.000000
vt 0.625000 0.750000
vt 0.375000 1.000000
vt 0.375000 0.750000
vt 0.375000 0.500000
vt 0.125000 0.750000
vt 0.125000 0.500000
vt 0.625000 0.500000
vt 0.625000 0.250000
vt 0.375000 0.250000
vt 0.625000 1.000000
vn 0.0000 0.0000 1.0000
vn 0.0000 -1.0000 0.0000
vn 1.0000 0.0000 0.0000
vn 0.0000 0.0000 -1.0000
g Cube.012_Cube.012_Material.012
usemtl Material.012
s off
f 94/118/39 99/119/39 95/120/39
f 93/121/40 99/122/40 97/123/40
f 92/124/41 95/120/41 93/121/41
f 96/125/42 93/121/42 97/126/42
f 94/118/39 98/127/39 99/119/39
f 93/121/40 95/120/40 99/122/40
f 92/124/41 94/118/41 95/120/41
f 96/125/42 92/124/42 93/121/42
o Cube.013
v 17.000000 1.000000 -1.000000
v 17.000000 -1.000000 -1.000000
v 17.000000 1.000000 1.000000
v 17.000000 -1.000000 1.000000
v 15.000000 1.000000 -1.000000
v 15.000000 -1.000000 -1.000000
v 15.000000 1.000000 1.000000
v 15.000000 -1.000000 1.000000
vt 0.625000 0.750000
vt 0.375000 1.000000
vt 0.375000 0.750000
vt 0.375000 0.500000
vt 0.125000 0.750000
vt 0.125000 0.500000
vt 0.625000 0.250000
vt 0.375000 0.250000
vt 0.625000 1.000000
vt 0.625000 0.500000
vn 0.0000 0.0000 1.0000
vn 0.0000 -1.0000 0.0000
vn 0.0000 0.0000 -1.0000
g Cube.013_Cube.013_Material.013
usemtl Material.013
s off
f 102/128/43 107/129/43 103/130/43
f 101/131/44 107/132/44 105/133/44
f 104/134/45 101/131/45 105/135/45
f 102/128/43 106/136/43 107/129/43
f 101/131/44 103/130/44 107/132/44
f 104/134/45 100/137/45 101/131/45
o Cube.014
v 19.000000 -1.000000 -1.000000
v 19.000000 1.000000 1.000000
v 19.000000 -1.000000 1.000000
v 17.000000 -1.000000 -1.000000
v 17.000000 1.000000 1.000000
v 17.000000 -1.000000 1.000000
vt 0.625000 0.750000
vt 0.375000 1.000000
vt 0.375000 0.750000
vt 0.375000 0.500000
vt 0.125000 0.750000
vt 0.125000 0.500000
vt 0.625000 1.000000
vn 0.0000 0.0000 1.0000
vn 0.0000 -1.0000 0.0000
g Cube.014_Cube.014_Material.014
usemtl Material.014
s off
f 109/138/46 113/139/46 110/140/46
f 108/141/47 113/142/47 111/143/47
f 109/138/46 112/144/46 113/139/46
f 108/141/47 110/140/47 113/142/47
o Cube.015
v 19.000000 1.000000 -3.000000
v 19.000000 -1.000000 -3.000000
v 19.000000 1.000000 -1.000000
v 19.000000 -1.000000 -1.000000
v 17.000000 1.000000 -3.000000
v 17.000000 -1.000000 -3.000000
v 17.000000 1.000000 -1.000000
v 17.000000 -1.000000 -1.000000
vt 0.625000 0.000000
vt 0.375000 0.250000
vt 0.375000 0.000000
vt 0.375000 0.500000
vt 0.125000 0.750000
vt 0.125000 0.500000
vt 0.625000 0.500000
vt 0.375000 0.750000
vt 0.625000 0.250000
vt 0.625000 0.750000
vn -1.0000 0.0000 0.0000
vn 0.0000 -1.0000 0.0000
vn 1.0000 0.0000 0.0000
g Cube.015_Cube.015_Material.015
usemtl Material.015
s off
f 120/145/48 119/146/48 121/147/48
f 115/148/49 121/149/49 119/150/49
f 114/151/50 117/152/50 115/148/50
f 120/145/48 118/153/48 119/146/48
f 115/148/49 117/152/49 121/149/49
f 114/151/50 116/154/50 117/152/50
o Cube.016
v 19.000000 1.000000 -5.000000
v 19.000000 -1.000000 -5.000000
v 19.000000 1.000000 -3.000000
v 19.000000 -1.000000 -3.000000
v 17.000000 1.000000 -5.000000
v 17.000000 -1.000000 -5.000000
v 17.000000 1.000000 -3.000000
v 17.000000 -1.000000 -3.000000
vt 0.625000 0.000000
vt 0.375000 0.250000
vt 0.375000 0.000000
vt 0.375000 0.500000
vt 0.125000 0.750000
vt 0.125000 0.500000
vt 0.625000 0.500000
vt 0.375000 0.750000
vt 0.625000 0.250000
vt 0.625000 0.750000
vn -1.0000 0.0000 0.0000
vn 0.0000 -1.0000 0.0000
vn 1.0000 0.0000 0.0000
vn 0.0000 0.0000 -1.0000
g Cube.016_Cube.016_Material.016
usemtl Material.016
s off
f 128/155/51 127/156/51 129/157/51
f 123/158/52 129/159/52 127/160/52
f 122/161/53 125/162/53 123/158/53
f 126/163/54 123/158/54 127/156/54
f 128/155/51 126/163/51 127/156/51
f 123/158/52 125/162/52 129/159/52
f 122/161/53 124/164/53 125/162/53
f 126/163/54 122/161/54 123/158/54
o Cube.017
v 21.000000 1.000000 -1.000000
v 21.000000 -1.000000 -1.000000
v 21.000000 1.000000 1.000000
v 21.000000 -1.000000 1.000000
v 19.000000 1.000000 -1.000000
v 19.000000 -1.000000 -1.000000
v 19.000000 1.000000 1.000000
v 19.000000 -1.000000 1.000000
vt 0.625000 0.750000
vt 0.375000 1.000000
vt 0.375000 0.750000
vt 0.375000 0.500000
vt 0.125000 0.750000
vt 0.125000 0.500000
vt 0.625000 0.250000
vt 0.375000 0.250000
vt 0.625000 1.000000
vt 0.625000 0.500000
vn 0.0000 0.0000 1.0000
vn 0.0000 -1.0000 0.0000
vn 0.0000 0.0000 -1.0000
g Cube.017_Cube.017_Material.017
usemtl Material.017
s off
f 132/165/55 137/166/55 133/167/55
f 131/168/56 137/169/56 135/170/56
f 134/171/57 131/168/57 135/172/57
f 132/165/55 136/173/55 137/166/55
f 131/168/56 133/167/56 137/169/56
f 134/171/57 130/174/57 131/168/57
o Cube.018
v 23.000000 1.000000 -1.000000
v 23.000000 -1.000000 -1.000000
v 23.000000 1.000000 1.000000
v 23.000000 -1.000000 1.000000
v 21.000000 1.000000 -1.000000
v 21.000000 -1.000000 -1.000000
v 21.000000 1.000000 1.000000
v 21.000000 -1.000000 1.000000
vt 0.625000 0.750000
vt 0.375000 1.000000
vt 0.375000 0.750000
vt 0.375000 0.500000
vt 0.125000 0.750000
vt 0.125000 0.500000
vt 0.625000 0.250000
vt 0.375000 0.250000
vt 0.625000 1.000000
vt 0.625000 0.500000
vn 0.0000 0.0000 1.0000
vn 0.0000 -1.0000 0.0000
vn 0.0000 0.0000 -1.0000
g Cube.018_Cube.018_Material.018
usemtl Material.018
s off
f 140/175/58 145/176/58 141/177/58
f 139/178/59 145/179/59 143/180/59
f 142/181/60 139/178/60 143/182/60
f 140/175/58 144/183/58 145/176/58
f 139/178/59 141/177/59 145/179/59
f 142/181/60 138/184/60 139/178/60
o Cube.019
v 25.000000 1.000000 -1.000000
v 25.000000 -1.000000 -1.000000
v 25.000000 1.000000 1.000000
v 25.000000 -1.000000 1.000000
v 23.000000 1.000000 -1.000000
v 23.000000 -1.000000 -1.000000
v 23.000000 1.000000 1.000000
v 23.000000 -1.000000 1.000000
vt 0.625000 0.750000
vt 0.375000 1.000000
vt 0.375000 0.750000
vt 0.375000 0.500000
vt 0.125000 0.750000
vt 0.125000 0.500000
vt 0.625000 0.250000
vt 0.375000 0.250000
vt 0.625000 1.000000
vt 0.625000 0.500000
vn 0.0000 0.0000 1.0000
vn 0.0000 -1.0000 0.0000
vn 0.0000 0.0000 -1.0000
g Cube.019_Cube.019_Material.019
usemtl Material.019
s off
f 148/185/61 153/186/61 149/187/61
f 147/188/62 153/189/62 151/190/62
f 150/191/63 147/188/63 151/192/63
f 148/185/61 152/193/61 153/186/61
f 147/188/62 149/187/62 153/189/62
f 150/191/63 146/194/63 147/188/63
o Cube.020
v 27.000000 1.000000 -1.000000
v 27.000000 -1.000000 -1.000000
v 27.000000 1.000000 1.000000
v 27.000000 -1.000000 1.000000
v 25.000000 1.000000 -1.000000
v 25.000000 -1.000000 -1.000000
v 25.000000 1.000000 1.000000
v 25.000000 -1.000000 1.000000
vt 0.625000 0.750000
vt 0.375000 1.000000
vt 0.375000 0.750000
vt 0.375000 0.500000
vt 0.125000 0.750000
vt 0.125000 0.500000
vt 0.625000 0.250000
vt 0.375000 0.250000
vt 0.625000 1.000000
vt 0.625000 0.500000
vn 0.0000 0.0000 1.0000
vn 0.0000 -1.0000 0.0000
vn 0.0000 0.0000 -1.0000
g Cube.020_Cube.020_Material.020
usemtl Material.020
s off
f 156/195/64 161/196/64 157/197/64
f 155/198/65 161/199/65 159/200/65
f 158/201/66 155/198/66 159/202/66
f 156/195/64 160/203/64 161/196/64
f 155/198/65 157/197/65 161/199/65
f 158/201/66 154/204/66 155/198/66
o Cube.021
v 29.000000 1.000000 -1.000000
v 29.000000 -1.000000 -1.000000
v 29.000000 1.000000 1.000000
v 29.000000 -1.000000 1.000000
v 27.000000 1.000000 -1.000000
v 27.000000 -1.000000 -1.000000
v 27.000000 1.000000 1.000000
v 27.000000 -1.000000 1.000000
vt 0.625000 0.750000
vt 0.375000 1.000000
vt 0.375000 0.750000
vt 0.375000 0.500000
vt 0.125000 0.750000
vt 0.125000 0.500000
vt 0.625000 0.250000
vt 0.375000 0.250000
vt 0.625000 1.000000
vt 0.625000 0.500000
vn 0.0000 0.0000 1.0000
vn 0.0000 -1.0000 0.0000
vn 0.0000 0.0000 -1.0000
g Cube.021_Cube.021_Material.021
usemtl Material.021
s off
f 164/205/67 169/206/67 165/207/67
f 163/208/68 169/209/68 167/210/68
f 166/211/69 163/208/69 167/212/69
f 164/205/67 168/213/67 169/206/67
f 163/208/68 165/207/68 169/209/68
f 166/211/69 162/214/69 163/208/69
o Cube.022
v 31.000000 1.000000 -1.000000
v 31.000000 -1.000000 -1.000000
v 31.000000 1.000000 1.000000
v 31.000000 -1.000000 1.000000
v 29.000000 1.000000 -1.000000
v 29.000000 -1.000000 -1.000000
v 29.000000 1.000000 1.000000
v 29.000000 -1.000000 1.000000
vt 0.625000 0.750000
vt 0.375000 1.000000
vt 0.375000 0.750000
vt 0.375000 0.500000
vt 0.125000 0.750000
vt 0.125000 0.500000
vt 0.625000 0.500000
vt 0.625000 0.250000
vt 0.375000 0.250000
vt 0.625000 1.000000
vn 0.0000 0.0000 1.0000
vn 0.0000 -1.0000 0.0000
vn 1.0000 0.0000 0.0000
vn 0.0000 0.0000 -1.0000
g Cube.022_Cube.022_Material.022
usemtl Material.022
s off
f 172/215/70 177/216/70 173/217/70
f 171/218/71 177/219/71 175/220/71
f 170/221/72 173/217/72 171/218/72
f 174/222/73 171/218/73 175/223/73
f 172/215/70 176/224/70 177/216/70
f 171/218/71 173/217/71 177/219/71
f 170/221/72 172/215/72 173/217/72
f 174/222/73 170/221/73 171/218/73
