# Blender v2.83.0 OBJ File: ''
# www.blender.org
mtllib side_new.mtl
o Center_M_Center.003
v 0.229610 -0.552380 1.002554
v 0.554328 -0.227662 1.002554
v 0.229610 0.556276 1.002554
v 0.117054 0.590419 1.002554
v 0.000000 0.601948 1.002554
v -0.117053 0.590419 1.002554
v -0.229609 0.556276 1.002554
v -0.333342 0.500830 1.002554
v -0.424264 0.426213 1.002554
v -0.498881 0.335291 1.002554
v -0.554328 0.231559 1.002554
v -0.588471 0.119003 1.002554
v -0.554328 -0.227662 1.002554
v -0.600000 0.001948 1.002554
v -0.588471 -0.115106 1.002554
v -0.498882 -0.331394 1.002554
v -0.229610 -0.552380 1.002554
v -0.424264 -0.422316 1.002554
v -0.333342 -0.496934 1.002554
v -0.117054 -0.586523 1.002554
v 0.000000 -0.598052 1.002554
v 0.117054 -0.586523 1.002554
v 0.333342 -0.496934 1.002554
v 0.424264 -0.422316 1.002554
v 0.498882 -0.331394 1.002554
v 0.588471 -0.115106 1.002554
v 0.600000 0.001948 1.002554
v 0.588471 0.119002 1.002554
v 0.554328 0.231558 1.002554
v 0.498882 0.335290 1.002554
v 0.424264 0.426212 1.002554
v 0.333342 0.500830 1.002554
vt 0.341844 0.028269
vt 0.471731 0.158156
vt 0.341844 0.471731
vt 0.296822 0.485388
vt 0.250000 0.490000
vt 0.203179 0.485389
vt 0.158156 0.471731
vt 0.116663 0.449553
vt 0.080295 0.419706
vt 0.050447 0.383337
vt 0.028269 0.341844
vt 0.014612 0.296822
vt 0.028269 0.158156
vt 0.010000 0.250000
vt 0.014611 0.203179
vt 0.050447 0.116663
vt 0.158156 0.028269
vt 0.080294 0.080294
vt 0.116663 0.050447
vt 0.203178 0.014612
vt 0.250000 0.010000
vt 0.296822 0.014612
vt 0.383337 0.050447
vt 0.419706 0.080294
vt 0.449553 0.116663
vt 0.485388 0.203178
vt 0.490000 0.250000
vt 0.485388 0.296822
vt 0.471731 0.341844
vt 0.449553 0.383337
vt 0.419706 0.419706
vt 0.383337 0.449553
vn 0.0000 -0.0000 1.0000
g Center_M_Center.003_Center_M_Center.003_Material.011
usemtl Material.011
s 1
f 1/1/1 2/2/1 3/3/1
f 3/3/1 4/4/1 5/5/1
f 5/5/1 6/6/1 3/3/1
f 6/6/1 7/7/1 3/3/1
f 7/7/1 8/8/1 9/9/1
f 9/9/1 10/10/1 11/11/1
f 11/11/1 12/12/1 13/13/1
f 12/12/1 14/14/1 13/13/1
f 14/14/1 15/15/1 13/13/1
f 13/13/1 16/16/1 17/17/1
f 16/16/1 18/18/1 17/17/1
f 18/18/1 19/19/1 17/17/1
f 17/17/1 20/20/1 1/1/1
f 20/20/1 21/21/1 1/1/1
f 21/21/1 22/22/1 1/1/1
f 1/1/1 23/23/1 24/24/1
f 24/24/1 25/25/1 2/2/1
f 2/2/1 26/26/1 27/27/1
f 27/27/1 28/28/1 29/29/1
f 29/29/1 30/30/1 31/31/1
f 31/31/1 32/32/1 3/3/1
f 7/7/1 9/9/1 11/11/1
f 1/1/1 24/24/1 2/2/1
f 2/2/1 27/27/1 29/29/1
f 29/29/1 31/31/1 2/2/1
f 31/31/1 3/3/1 2/2/1
f 3/3/1 7/7/1 11/11/1
f 11/11/1 13/13/1 3/3/1
f 13/13/1 17/17/1 3/3/1
f 17/17/1 1/1/1 3/3/1
o FaceN_M_FaceN.002
v 0.231437 -0.101676 1.001544
v -0.995624 0.108305 1.001544
v -0.995623 -0.101676 1.001544
v 0.231437 0.108305 1.001544
vt 0.875000 0.500000
vt 0.625000 0.750000
vt 0.625000 0.500000
vt 0.875000 0.750000
vn 0.0000 0.0000 1.0000
g FaceN_M_FaceN.002_FaceN_M_FaceN.002_Material.012
usemtl Material.012
s 1
f 33/33/2 34/34/2 35/35/2
f 33/33/2 36/36/2 34/34/2
o FaceW_M_FaceW.003
v 0.103624 0.224908 1.001544
v -0.106357 -1.002153 1.001544
v 0.103625 -1.002152 1.001544
v -0.106357 0.224908 1.001544
vt 0.875000 0.500000
vt 0.625000 0.750000
vt 0.625000 0.500000
vt 0.875000 0.750000
vn -0.0000 -0.0000 1.0000
g FaceW_M_FaceW.003_FaceW_M_FaceW.003_Material.014
usemtl Material.014
s 1
f 37/37/3 38/38/3 39/39/3
f 37/37/3 40/40/3 38/38/3
o FaceE_M_FaceE.002
v 0.103624 0.997319 1.001544
v -0.106357 -0.229742 1.001544
v 0.103624 -0.229742 1.001544
v -0.106357 0.997319 1.001544
vt 0.875000 0.500000
vt 0.625000 0.750000
vt 0.625000 0.500000
vt 0.875000 0.750000
vn 0.0000 -0.0000 1.0000
g FaceE_M_FaceE.002_FaceE_M_FaceE.002_Material.015
usemtl Material.015
s 1
f 41/41/4 42/42/4 43/43/4
f 41/41/4 44/44/4 42/42/4
