# Blender v2.83.0 OBJ File: 'ground_new.blend'
# www.blender.org
mtllib side_nes.mtl
o Center_M_Center
v -0.000000 0.601948 1.002554
v 0.117054 0.590419 1.002554
v 0.229610 0.556276 1.002554
v 0.333342 0.500830 1.002554
v 0.424264 0.426212 1.002554
v 0.498882 0.335290 1.002554
v 0.554328 0.231558 1.002554
v 0.588471 0.119002 1.002554
v 0.600000 0.001948 1.002554
v 0.588471 -0.115106 1.002554
v 0.554328 -0.227662 1.002554
v 0.498882 -0.331394 1.002554
v 0.424264 -0.422316 1.002554
v 0.333342 -0.496934 1.002554
v 0.229610 -0.552380 1.002554
v 0.117054 -0.586523 1.002554
v -0.000000 -0.598052 1.002554
v -0.117054 -0.586523 1.002554
v -0.229610 -0.552380 1.002554
v -0.333342 -0.496934 1.002554
v -0.424264 -0.422316 1.002554
v -0.498882 -0.331394 1.002554
v -0.554328 -0.227662 1.002554
v -0.588471 -0.115106 1.002554
v -0.600000 0.001948 1.002554
v -0.588471 0.119003 1.002554
v -0.554328 0.231559 1.002554
v -0.498881 0.335291 1.002554
v -0.424264 0.426213 1.002554
v -0.333342 0.500830 1.002554
v -0.229609 0.556276 1.002554
v -0.117053 0.590419 1.002554
vt 0.341844 0.028269
vt 0.471731 0.158156
vt 0.341844 0.471731
vt 0.296822 0.485388
vt 0.250000 0.490000
vt 0.203179 0.485389
vt 0.158156 0.471731
vt 0.116663 0.449553
vt 0.080295 0.419706
vt 0.050447 0.383337
vt 0.028269 0.341844
vt 0.014612 0.296822
vt 0.028269 0.158156
vt 0.010000 0.250000
vt 0.014611 0.203179
vt 0.050447 0.116663
vt 0.158156 0.028269
vt 0.080294 0.080294
vt 0.116663 0.050447
vt 0.203178 0.014612
vt 0.250000 0.010000
vt 0.296822 0.014612
vt 0.383337 0.050447
vt 0.419706 0.080294
vt 0.449553 0.116663
vt 0.485388 0.203178
vt 0.490000 0.250000
vt 0.485388 0.296822
vt 0.471731 0.341844
vt 0.449553 0.383337
vt 0.419706 0.419706
vt 0.383337 0.449553
vn 0.0000 0.0000 1.0000
g Center_M_Center_Material.001
usemtl Material.001
s off
f 15/1/1 11/2/1 3/3/1
f 3/3/1 2/4/1 1/5/1
f 1/5/1 32/6/1 3/3/1
f 32/6/1 31/7/1 3/3/1
f 31/7/1 30/8/1 29/9/1
f 29/9/1 28/10/1 27/11/1
f 27/11/1 26/12/1 23/13/1
f 26/12/1 25/14/1 23/13/1
f 25/14/1 24/15/1 23/13/1
f 23/13/1 22/16/1 19/17/1
f 22/16/1 21/18/1 19/17/1
f 21/18/1 20/19/1 19/17/1
f 19/17/1 18/20/1 15/1/1
f 18/20/1 17/21/1 15/1/1
f 17/21/1 16/22/1 15/1/1
f 15/1/1 14/23/1 13/24/1
f 13/24/1 12/25/1 11/2/1
f 11/2/1 10/26/1 9/27/1
f 9/27/1 8/28/1 7/29/1
f 7/29/1 6/30/1 5/31/1
f 5/31/1 4/32/1 3/3/1
f 31/7/1 29/9/1 27/11/1
f 15/1/1 13/24/1 11/2/1
f 11/2/1 9/27/1 7/29/1
f 7/29/1 5/31/1 11/2/1
f 5/31/1 3/3/1 11/2/1
f 3/3/1 31/7/1 27/11/1
f 27/11/1 23/13/1 3/3/1
f 23/13/1 19/17/1 3/3/1
f 19/17/1 15/1/1 3/3/1
o FaceN_M_FaceN
v 0.231437 0.108305 1.001544
v 0.231437 -0.101676 1.001544
v -0.995624 0.108305 1.001544
v -0.995623 -0.101676 1.001544
vt 0.875000 0.500000
vt 0.625000 0.750000
vt 0.625000 0.500000
vt 0.875000 0.750000
vn 0.0000 0.0000 1.0000
g FaceN_M_FaceN_Material.003
usemtl Material.003
s off
f 34/33/2 35/34/2 36/35/2
f 34/33/2 33/36/2 35/34/2
o FaceS_M_FaceS
v 1.003847 0.108305 1.001544
v 1.003847 -0.101676 1.001544
v -0.223213 0.108305 1.001544
v -0.223213 -0.101677 1.001544
vt 0.875000 0.500000
vt 0.625000 0.750000
vt 0.625000 0.500000
vt 0.875000 0.750000
vn -0.0000 -0.0000 1.0000
g FaceS_M_FaceS_Material.004
usemtl Material.004
s off
f 38/37/3 39/38/3 40/39/3
f 38/37/3 37/40/3 39/38/3
o FaceE_M_FaceE
v -0.106357 0.997319 1.001544
v 0.103624 0.997319 1.001544
v -0.106357 -0.229742 1.001544
v 0.103624 -0.229742 1.001544
vt 0.875000 0.500000
vt 0.625000 0.750000
vt 0.625000 0.500000
vt 0.875000 0.750000
vn -0.0000 0.0000 1.0000
g FaceE_M_FaceE_Material.002
usemtl Material.002
s off
f 42/41/4 43/42/4 44/43/4
f 42/41/4 41/44/4 43/42/4
