# Blender v2.83.0 OBJ File: ''
# www.blender.org
mtllib trigger_on.mtl
o Text
v 0.213531 1.773878 -0.161859
v 0.148478 1.773878 -0.096806
v 0.115938 1.247887 -0.129345
v -0.178206 1.773878 0.229878
v -0.233360 1.773878 0.285032
v -0.275391 1.094473 0.243001
v -0.210337 1.094473 0.177948
v -0.177982 1.617475 0.210303
v 0.112104 1.094473 -0.144493
v 0.171501 1.094473 -0.203890
v -0.856830 1.434175 0.866472
v -0.857597 1.388600 0.861599
v -0.854272 1.344356 0.852800
v -0.846968 1.301946 0.840249
v -0.835801 1.261870 0.824123
v -0.820883 1.224631 0.804598
v -0.802329 1.190730 0.781850
v -0.780252 1.160668 0.756053
v -0.754767 1.134948 0.727386
v -0.725986 1.114070 0.696022
v -0.694025 1.098536 0.662138
v -0.658996 1.088848 0.625911
v -0.621013 1.085507 0.587515
v -0.581359 1.088867 0.548276
v -0.544160 1.098605 0.512282
v -0.509559 1.114210 0.479612
v -0.477698 1.135169 0.450344
v -0.448720 1.160971 0.424559
v -0.422767 1.191104 0.402333
v -0.399980 1.225055 0.383747
v -0.380502 1.262313 0.368879
v -0.364475 1.302366 0.357807
v -0.352041 1.344702 0.350612
v -0.343342 1.388809 0.347370
v -0.338521 1.434175 0.348162
v -0.337705 1.480797 0.353114
v -0.341032 1.525724 0.362000
v -0.348386 1.568506 0.374647
v -0.359649 1.608694 0.390883
v -0.374705 1.645838 0.410535
v -0.393437 1.679488 0.433430
v -0.415727 1.709195 0.459396
v -0.441459 1.734509 0.488260
v -0.470515 1.754981 0.519849
v -0.502778 1.770160 0.553990
v -0.538132 1.779598 0.590512
v -0.576459 1.782843 0.629241
v -0.614581 1.779579 0.666958
v -0.650679 1.770091 0.701883
v -0.684556 1.754841 0.733873
v -0.716013 1.734288 0.762787
v -0.744853 1.708893 0.788485
v -0.770878 1.679115 0.810826
v -0.793890 1.645414 0.829668
v -0.813692 1.608251 0.844871
v -0.830084 1.568086 0.856294
v -0.842870 1.525378 0.863796
v -0.851851 1.480587 0.867235
v -0.785413 1.434175 0.795054
v -0.781521 1.470662 0.795677
v -0.774599 1.505246 0.793034
v -0.764845 1.537686 0.787293
v -0.752453 1.567739 0.778620
v -0.737622 1.595163 0.767182
v -0.720548 1.619716 0.753146
v -0.701427 1.641156 0.736677
v -0.680456 1.659241 0.717944
v -0.657831 1.673729 0.697112
v -0.633751 1.684377 0.674349
v -0.608410 1.690943 0.649821
v -0.582006 1.693186 0.623694
v -0.555717 1.690943 0.597128
v -0.531053 1.684377 0.571651
v -0.508179 1.673729 0.547460
v -0.487258 1.659241 0.524747
v -0.468456 1.641157 0.503707
v -0.451936 1.619716 0.484534
v -0.437862 1.595163 0.467422
v -0.426399 1.567739 0.452566
v -0.417711 1.537686 0.440159
v -0.411962 1.505246 0.430397
v -0.409316 1.470662 0.423472
v -0.409939 1.434175 0.419580
v -0.413818 1.397898 0.418971
v -0.420734 1.363450 0.421625
v -0.430492 1.331085 0.427378
v -0.442897 1.301054 0.436067
v -0.457754 1.273611 0.447529
v -0.474869 1.249007 0.461600
v -0.494046 1.227497 0.478116
v -0.515092 1.209330 0.496913
v -0.537810 1.194762 0.517829
v -0.562006 1.184043 0.540699
v -0.587485 1.177426 0.565359
v -0.614053 1.175165 0.591647
v -0.640178 1.177426 0.618052
v -0.664703 1.184043 0.643396
v -0.687462 1.194762 0.667481
v -0.708289 1.209330 0.690111
v -0.727017 1.227497 0.711087
v -0.743481 1.249007 0.730212
v -0.757515 1.273611 0.747290
v -0.768952 1.301054 0.762122
v -0.777626 1.331085 0.774512
v -0.783372 1.363450 0.784262
v -0.786022 1.397898 0.791175
vt 0.555556 0.000000
vt 0.333333 0.000000
vt 0.444444 0.000000
vt 0.777778 0.000000
vt 0.222222 0.000000
vt 0.000000 0.000000
vt 0.111111 0.000000
vt 1.000000 0.000000
vt 0.666667 0.000000
vt 0.888889 0.000000
vt 0.389474 0.000000
vt 0.368421 0.000000
vt 0.378947 0.000000
vt 0.357895 0.000000
vt 0.400000 0.000000
vt 0.347368 0.000000
vt 0.410526 0.000000
vt 0.336842 0.000000
vt 0.421053 0.000000
vt 0.326316 0.000000
vt 0.431579 0.000000
vt 0.315789 0.000000
vt 0.442105 0.000000
vt 0.631579 0.000000
vt 0.621053 0.000000
vt 0.642105 0.000000
vt 0.652632 0.000000
vt 0.610526 0.000000
vt 0.663158 0.000000
vt 0.600000 0.000000
vt 0.305263 0.000000
vt 0.452632 0.000000
vt 0.673684 0.000000
vt 0.589474 0.000000
vt 0.684211 0.000000
vt 0.578947 0.000000
vt 0.294737 0.000000
vt 0.463158 0.000000
vt 0.694737 0.000000
vt 0.568421 0.000000
vt 0.705263 0.000000
vt 0.557895 0.000000
vt 0.284211 0.000000
vt 0.473684 0.000000
vt 0.715789 0.000000
vt 0.547368 0.000000
vt 0.273684 0.000000
vt 0.484211 0.000000
vt 0.726316 0.000000
vt 0.536842 0.000000
vt 0.736842 0.000000
vt 0.526316 0.000000
vt 0.263158 0.000000
vt 0.494737 0.000000
vt 0.747368 0.000000
vt 0.515789 0.000000
vt 0.252632 0.000000
vt 0.000000 0.000000
vt 0.757895 0.000000
vt 0.505263 0.000000
vt 0.010526 0.000000
vt 1.000000 0.000000
vt 0.768421 0.000000
vt 0.242105 0.000000
vt 0.989474 0.000000
vt 0.778947 0.000000
vt 0.231579 0.000000
vt 0.021053 0.000000
vt 0.978947 0.000000
vt 0.789474 0.000000
vt 0.221053 0.000000
vt 0.031579 0.000000
vt 0.800000 0.000000
vt 0.968421 0.000000
vt 0.210526 0.000000
vt 0.042105 0.000000
vt 0.810526 0.000000
vt 0.957895 0.000000
vt 0.821053 0.000000
vt 0.947368 0.000000
vt 0.200000 0.000000
vt 0.052632 0.000000
vt 0.831579 0.000000
vt 0.936842 0.000000
vt 0.842105 0.000000
vt 0.926316 0.000000
vt 0.189474 0.000000
vt 0.063158 0.000000
vt 0.852632 0.000000
vt 0.915789 0.000000
vt 0.863158 0.000000
vt 0.905263 0.000000
vt 0.178947 0.000000
vt 0.073684 0.000000
vt 0.873684 0.000000
vt 0.894737 0.000000
vt 0.884211 0.000000
vt 0.168421 0.000000
vt 0.084211 0.000000
vt 0.157895 0.000000
vt 0.094737 0.000000
vt 0.147368 0.000000
vt 0.105263 0.000000
vt 0.136842 0.000000
vt 0.115789 0.000000
vt 0.126316 0.000000
vn 0.7044 -0.0872 0.7044
vn 0.7045 -0.0872 0.7044
vn 0.7046 -0.0873 0.7042
vn 0.7042 -0.0872 0.7047
vn 0.7044 -0.0871 0.7044
g Text_Text_None
usemtl None
s off
f 6/1/1 4/2/1 5/3/1
f 6/1/1 8/4/1 4/2/1
f 8/4/1 3/5/1 4/2/1
f 3/5/1 1/6/1 2/7/1
f 3/5/1 10/8/1 1/6/1
f 6/1/1 7/9/1 8/4/1
f 9/10/1 3/5/1 8/4/1
f 9/10/1 10/8/1 3/5/1
f 48/11/1 46/12/1 47/13/1
f 48/11/1 45/14/1 46/12/1
f 49/15/1 45/14/1 48/11/1
f 49/15/1 44/16/1 45/14/1
f 50/17/1 44/16/1 49/15/1
f 50/17/1 43/18/1 44/16/1
f 51/19/1 43/18/1 50/17/1
f 51/19/1 42/20/1 43/18/1
f 52/21/1 42/20/1 51/19/1
f 52/21/1 41/22/1 42/20/1
f 53/23/1 71/24/1 52/21/1
f 71/24/2 41/22/2 52/21/2
f 53/23/3 70/25/3 71/24/3
f 72/26/4 41/22/4 71/24/4
f 73/27/1 41/22/1 72/26/1
f 53/23/5 69/28/5 70/25/5
f 74/29/1 41/22/1 73/27/1
f 53/23/1 68/30/1 69/28/1
f 74/29/1 40/31/1 41/22/1
f 54/32/1 68/30/1 53/23/1
f 75/33/1 40/31/1 74/29/1
f 54/32/1 67/34/1 68/30/1
f 76/35/1 40/31/1 75/33/1
f 54/32/1 66/36/1 67/34/1
f 76/35/1 39/37/1 40/31/1
f 55/38/1 66/36/1 54/32/1
f 77/39/1 39/37/1 76/35/1
f 55/38/1 65/40/1 66/36/1
f 78/41/1 39/37/1 77/39/1
f 55/38/1 64/42/1 65/40/1
f 78/41/1 38/43/1 39/37/1
f 56/44/1 64/42/1 55/38/1
f 79/45/1 38/43/1 78/41/1
f 56/44/1 63/46/1 64/42/1
f 79/45/1 37/47/1 38/43/1
f 57/48/1 63/46/1 56/44/1
f 80/49/1 37/47/1 79/45/1
f 57/48/1 62/50/1 63/46/1
f 81/51/1 37/47/1 80/49/1
f 57/48/1 61/52/1 62/50/1
f 81/51/1 36/53/1 37/47/1
f 58/54/1 61/52/1 57/48/1
f 82/55/1 36/53/1 81/51/1
f 58/54/1 60/56/1 61/52/1
f 82/55/1 35/57/1 36/53/1
f 11/58/1 60/56/1 58/54/1
f 83/59/1 35/57/1 82/55/1
f 11/58/1 59/60/1 60/56/1
f 12/61/1 59/60/1 11/58/1
f 12/61/1 106/62/1 59/60/1
f 84/63/1 35/57/1 83/59/1
f 84/63/1 34/64/1 35/57/1
f 12/61/1 105/65/1 106/62/1
f 85/66/1 34/64/1 84/63/1
f 85/66/1 33/67/1 34/64/1
f 13/68/1 105/65/1 12/61/1
f 13/68/1 104/69/1 105/65/1
f 86/70/1 33/67/1 85/66/1
f 86/70/1 32/71/1 33/67/1
f 14/72/1 104/69/1 13/68/1
f 87/73/1 32/71/1 86/70/1
f 14/72/1 103/74/1 104/69/1
f 87/73/1 31/75/1 32/71/1
f 15/76/1 103/74/1 14/72/1
f 88/77/1 31/75/1 87/73/1
f 15/76/1 102/78/1 103/74/1
f 89/79/1 31/75/1 88/77/1
f 15/76/1 101/80/1 102/78/1
f 89/79/1 30/81/1 31/75/1
f 16/82/1 101/80/1 15/76/1
f 90/83/1 30/81/1 89/79/1
f 16/82/1 100/84/1 101/80/1
f 91/85/1 30/81/1 90/83/1
f 16/82/1 99/86/1 100/84/1
f 91/85/1 29/87/1 30/81/1
f 17/88/1 99/86/1 16/82/1
f 92/89/1 29/87/1 91/85/1
f 17/88/1 98/90/1 99/86/1
f 93/91/5 29/87/5 92/89/5
f 17/88/1 97/92/1 98/90/1
f 93/91/1 28/93/1 29/87/1
f 18/94/1 97/92/1 17/88/1
f 94/95/1 28/93/1 93/91/1
f 18/94/1 96/96/1 97/92/1
f 95/97/5 28/93/5 94/95/5
f 18/94/1 95/97/1 96/96/1
f 18/94/1 28/93/1 95/97/1
f 18/94/1 27/98/1 28/93/1
f 19/99/1 27/98/1 18/94/1
f 19/99/1 26/100/1 27/98/1
f 20/101/1 26/100/1 19/99/1
f 20/101/1 25/102/1 26/100/1
f 21/103/1 25/102/1 20/101/1
f 21/103/1 24/104/1 25/102/1
f 22/105/1 24/104/1 21/103/1
f 22/105/1 23/106/1 24/104/1
